# xmcd
#
# Track frame offsets:
#	167
#	12677
#	25132
#	36035
#	47272
#	59317
#	71337
#	83110
#	93415
#	105175
#
# Disc length: 1550 seconds
#
# Revision: 0
# Processed by: cddbd v1.5.2PL0 Copyright (c) Steve Scherf et al.
# Submitted via: audiograbber 1.83.01
#
DISCID=6e060c0a
DTITLE=Charts - Greatest Hits  
DYEAR=1900
DGENRE=Oldies
TTITLE0=Deserie
TTITLE1=All Because Of You
TTITLE2=Why Do You Cry
TTITLE3=Zoop
TTITLE4=I Told You So
TTITLE5=Dance Girl
TTITLE6=You're The Reason
TTITLE7=I've Been Wondering
TTITLE8=Baby Be Mine
TTITLE9=My Diane
EXTD=
EXTT0=
EXTT1=
EXTT2=
EXTT3=
EXTT4=
EXTT5=
EXTT6=
EXTT7=
EXTT8=
EXTT9=
PLAYORDER=
